<svg width="18" height="18" viewBox="0 0 18 18" fill="none" xmlns="http://www.w3.org/2000/svg">
<path fill-rule="evenodd" clip-rule="evenodd" d="M9.00002 0.666687C4.40002 0.666687 0.666687 4.40002 0.666687 9.00002C0.666687 13.6 4.40002 17.3334 9.00002 17.3334C13.6 17.3334 17.3334 13.6 17.3334 9.00002C17.3334 4.40002 13.6 0.666687 9.00002 0.666687ZM4.89169 14.2333C5.25002 13.4834 7.43335 12.75 9.00002 12.75C10.5667 12.75 12.7584 13.4834 13.1084 14.2333C11.975 15.1333 10.55 15.6667 9.00002 15.6667C7.45002 15.6667 6.02502 15.1333 4.89169 14.2333ZM9.00002 11.0834C10.2167 11.0834 13.1083 11.575 14.3 13.025C15.15 11.9084 15.6667 10.5167 15.6667 9.00002C15.6667 5.32502 12.675 2.33336 9.00002 2.33336C5.32502 2.33336 2.33335 5.32502 2.33335 9.00002C2.33335 10.5167 2.85002 11.9084 3.70002 13.025C4.89169 11.575 7.78335 11.0834 9.00002 11.0834ZM9.00002 4.00002C7.38335 4.00002 6.08335 5.30002 6.08335 6.91669C6.08335 8.53335 7.38335 9.83335 9.00002 9.83335C10.6167 9.83335 11.9167 8.53335 11.9167 6.91669C11.9167 5.30002 10.6167 4.00002 9.00002 4.00002ZM7.75002 6.91669C7.75002 7.60836 8.30835 8.16669 9.00002 8.16669C9.69169 8.16669 10.25 7.60836 10.25 6.91669C10.25 6.22502 9.69169 5.66669 9.00002 5.66669C8.30835 5.66669 7.75002 6.22502 7.75002 6.91669Z" fill="#828282"/>
</svg>
