<svg width="20" height="20" viewBox="0 0 20 20" fill="none" xmlns="http://www.w3.org/2000/svg">
<g id="icon/action/https_24px" opacity="0.8">
<path id="icon/action/https_24px_2" fill-rule="evenodd" clip-rule="evenodd" d="M14.1666 7.08333H15C15.9166 7.08333 16.6666 7.83333 16.6666 8.75V17.0833C16.6666 18 15.9166 18.75 15 18.75H4.99998C4.08331 18.75 3.33331 18 3.33331 17.0833V8.75C3.33331 7.83333 4.08331 7.08333 4.99998 7.08333H5.83331V5.41667C5.83331 3.11667 7.69998 1.25 9.99998 1.25C12.3 1.25 14.1666 3.11667 14.1666 5.41667V7.08333ZM9.99998 2.91667C8.61665 2.91667 7.49998 4.03333 7.49998 5.41667V7.08333H12.5V5.41667C12.5 4.03333 11.3833 2.91667 9.99998 2.91667ZM4.99998 17.0833V8.75H15V17.0833H4.99998ZM11.6666 12.9167C11.6666 13.8333 10.9166 14.5833 9.99998 14.5833C9.08331 14.5833 8.33331 13.8333 8.33331 12.9167C8.33331 12 9.08331 11.25 9.99998 11.25C10.9166 11.25 11.6666 12 11.6666 12.9167Z" fill="#828282"/>
</g>
</svg>
