<svg width="10" height="6" viewBox="0 0 10 6" fill="none" xmlns="http://www.w3.org/2000/svg">
<path d="M9.16646 0.642001C9.01033 0.486791 8.79912 0.399673 8.57896 0.399673C8.35881 0.399673 8.1476 0.486791 7.99146 0.642001L4.99979 3.592L2.04979 0.642001C1.89366 0.486791 1.68245 0.399673 1.46229 0.399673C1.24214 0.399673 1.03093 0.486791 0.874794 0.642001C0.796687 0.71947 0.734692 0.811637 0.692385 0.913187C0.650078 1.01474 0.628296 1.12366 0.628296 1.23367C0.628296 1.34368 0.650078 1.4526 0.692385 1.55415C0.734692 1.6557 0.796687 1.74787 0.874794 1.82533L4.40813 5.35867C4.4856 5.43678 4.57776 5.49877 4.67931 5.54108C4.78086 5.58338 4.88978 5.60517 4.99979 5.60517C5.1098 5.60517 5.21873 5.58338 5.32027 5.54108C5.42182 5.49877 5.51399 5.43678 5.59146 5.35867L9.16646 1.82533C9.24457 1.74787 9.30656 1.6557 9.34887 1.55415C9.39118 1.4526 9.41296 1.34368 9.41296 1.23367C9.41296 1.12366 9.39118 1.01474 9.34887 0.913187C9.30656 0.811637 9.24457 0.71947 9.16646 0.642001Z" fill="white"/>
</svg>
