<svg width="20" height="18" fill="none" xmlns="http://www.w3.org/2000/svg"><path d="M16.188.437a3.448 3.448 0 0 0-3.438 3.438c0 .223.023.44.065.652l-6.159 2.55a3.44 3.44 0 0 0-2.843-1.514A3.448 3.448 0 0 0 .374 9a3.448 3.448 0 0 0 3.438 3.438 3.44 3.44 0 0 0 2.843-1.515l6.159 2.55a3.41 3.41 0 0 0-.065.652 3.448 3.448 0 0 0 3.438 3.438 3.448 3.448 0 0 0 3.437-3.438 3.448 3.448 0 0 0-3.438-3.437 3.44 3.44 0 0 0-2.845 1.514l-6.156-2.55c.04-.211.064-.429.064-.652 0-.223-.023-.44-.064-.653l6.156-2.55a3.44 3.44 0 0 0 2.845 1.515 3.448 3.448 0 0 0 3.438-3.437A3.448 3.448 0 0 0 16.187.437Zm0 1.375c1.147 0 2.062.915 2.062 2.063a2.052 2.052 0 0 1-2.063 2.062 2.052 2.052 0 0 1-2.062-2.062c0-1.148.915-2.063 2.063-2.063ZM3.813 6.937c1.147 0 2.062.916 2.062 2.063a2.052 2.052 0 0 1-2.062 2.063A2.052 2.052 0 0 1 1.75 9c0-1.147.915-2.063 2.063-2.063Zm12.374 5.126c1.148 0 2.063.915 2.063 2.062a2.052 2.052 0 0 1-2.063 2.063 2.052 2.052 0 0 1-2.062-2.063c0-1.147.915-2.062 2.063-2.062Z" fill="#000" fill-opacity=".6"/></svg>